<?xml version="1.0" standalone="no"?><!DOCTYPE svg PUBLIC "-//W3C//DTD SVG 1.1//EN" "http://www.w3.org/Graphics/SVG/1.1/DTD/svg11.dtd"><svg t="1610071443804" class="icon" viewBox="0 0 1024 1024" version="1.1" xmlns="http://www.w3.org/2000/svg" p-id="1001" xmlns:xlink="http://www.w3.org/1999/xlink" width="200" height="200"><defs><style type="text/css"></style></defs><path d="M515.64 487m-289 0a289 289 0 1 0 578 0 289 289 0 1 0-578 0Z" fill="#C66D1E" p-id="1002"></path><path d="M515.64 794c-82 0-159.1-31.93-217.08-89.92S208.64 569 208.64 487s31.93-159.1 89.92-217.08C356.55 211.93 433.64 180 515.64 180s159.1 31.93 217.08 89.92C790.71 327.9 822.64 405 822.64 487s-31.93 159.1-89.92 217.08C674.74 762.07 597.65 794 515.64 794z m0-578c-72.39 0-140.44 28.19-191.63 79.37S244.64 414.61 244.64 487s28.19 140.44 79.37 191.63S443.26 758 515.64 758s140.44-28.19 191.63-79.37c51.18-51.19 79.37-119.24 79.37-191.63s-28.19-140.44-79.37-191.63C656.08 244.19 588.03 216 515.64 216z" fill="#500000" p-id="1003"></path><path d="M626.36 453.12c11.66 0 21.1 9.45 21.1 21.11v38.45c0 14.02 11.37 25.39 25.39 25.39 14.02 0 25.39-11.37 25.39-25.39v-17.34c0-11.66 9.45-21.11 21.11-21.11s21.11 9.45 21.11 21.11c0 17.49 14.18 31.66 31.66 31.66 17.49 0 31.66-14.18 31.66-31.66v-29.47C793.06 316.13 668.15 198 515.64 198c-159.61 0-289 129.39-289 289 0 12.65 0.81 25.12 2.45 37.31 5.2 12.28 17.36 20.89 31.53 20.89 18.9 0 34.22-15.32 34.22-34.22 0-12.6 10.21-22.82 22.82-22.82 12.6 0 22.82 10.21 22.82 22.82v34.22c0 12.6 10.21 22.82 22.82 22.82 12.6 0 22.82-10.21 22.82-22.82v-57.04c0-12.6 10.21-22.81 22.81-22.82" fill="#F98787" p-id="1004"></path><path d="M363.3 586.02c-22.51 0-40.82-18.31-40.82-40.82v-34.22c0-2.66-2.16-4.82-4.82-4.82s-4.82 2.16-4.82 4.82c0 28.8-23.43 52.22-52.22 52.22a52.145 52.145 0 0 1-48.11-31.88l-0.94-2.22-0.32-2.39c-1.74-12.89-2.62-26.25-2.62-39.71 0-82 31.93-159.1 89.92-217.08 58-57.99 135.09-89.92 217.09-89.92 78.1 0 152.51 29.35 209.53 82.63 56.74 53.03 91.04 124.75 96.57 201.96l0.05 1.29v29.47c0 27.39-22.28 49.66-49.66 49.66-27.39 0-49.67-22.28-49.67-49.66 0-1.71-1.39-3.11-3.11-3.11s-3.11 1.4-3.11 3.11v17.34c0 23.92-19.46 43.39-43.39 43.39s-43.39-19.46-43.39-43.39v-38.45c0-1.71-1.39-3.11-3.11-3.11l0.01-36c21.56 0 39.1 17.55 39.1 39.11v38.45c0 4.07 3.31 7.39 7.39 7.39s7.39-3.31 7.39-7.39v-17.34c0-21.57 17.54-39.11 39.11-39.11s39.11 17.54 39.11 39.11c0 7.53 6.13 13.66 13.67 13.66 7.53 0 13.66-6.13 13.66-13.66v-28.81c-5.02-67.88-35.26-130.93-85.2-177.59C650.26 241.9 584.58 216 515.64 216c-72.39 0-140.44 28.19-191.63 79.37S244.64 414.61 244.64 487c0 10.88 0.65 21.67 1.93 32.11 2.88 4.98 8.2 8.1 14.05 8.1 8.95 0 16.22-7.28 16.22-16.22 0-22.51 18.31-40.82 40.82-40.82s40.82 18.31 40.82 40.82v34.22c0 2.66 2.16 4.82 4.82 4.82s4.82-2.16 4.82-4.82v-57.04c0-22.5 18.31-40.81 40.81-40.82l0.01 36a4.82 4.82 0 0 0-4.81 4.82v57.04c-0.02 22.5-18.33 40.81-40.83 40.81z" fill="#500000" p-id="1005"></path><path d="M425.26 329.66c-6.63 0-12-5.37-12-12V297.7c0-6.63 5.37-12 12-12s12 5.37 12 12v19.96c0 6.63-5.37 12-12 12zM369.3 384.86c-4.72 0-9.19-2.8-11.1-7.43-2.52-6.13 0.4-13.14 6.53-15.67 15.78-6.5 18.22-7.05 19.03-7.23l5.3 23.41s0.15-0.02 0.56-0.14c-0.13 0.04-3.12 0.96-15.75 6.16-1.5 0.61-3.04 0.9-4.57 0.9zM547.47 312.86c-3.37 0-6.72-1.41-9.1-4.17-4.33-5.02-3.76-12.6 1.26-16.92l16.04-13.82c5.02-4.33 12.6-3.76 16.92 1.26 4.33 5.02 3.76 12.6-1.26 16.92l-16.04 13.82a11.944 11.944 0 0 1-7.82 2.91zM722.15 438.22c-0.71 0-1.43-0.06-2.15-0.19l-19.74-3.58c-6.52-1.18-10.85-7.43-9.67-13.95 1.18-6.52 7.43-10.85 13.95-9.67l19.74 3.58c6.52 1.18 10.85 7.43 9.67 13.95-1.06 5.8-6.11 9.86-11.8 9.86zM315.96 432.72c-5.94 0-11.1-4.41-11.89-10.46l-2.58-19.9c-0.85-6.57 3.79-12.59 10.36-13.44 6.57-0.85 12.59 3.79 13.44 10.36l2.58 19.9c0.85 6.57-3.79 12.59-10.36 13.44-0.52 0.06-1.04 0.1-1.55 0.1z" fill="#FFFFFF" p-id="1006"></path><path d="M652.16 360.4h-0.24c-6.63-0.13-11.89-5.61-11.76-12.23l0.41-21.02c0.13-6.63 5.62-11.92 12.23-11.76 6.63 0.13 11.89 5.61 11.76 12.23l-0.41 21.02c-0.13 6.54-5.47 11.76-11.99 11.76z" fill="#FFFFFF" p-id="1007"></path><path d="M515.64 487m-104.36 0a104.36 104.36 0 1 0 208.72 0 104.36 104.36 0 1 0-208.72 0Z" fill="#FFFFFF" p-id="1008"></path><path d="M515.64 609.36c-67.47 0-122.36-54.89-122.36-122.36s54.89-122.36 122.36-122.36S638 419.53 638 487s-54.89 122.36-122.36 122.36z m0-208.72c-47.62 0-86.36 38.74-86.36 86.36s38.74 86.36 86.36 86.36S602 534.62 602 487s-38.74-86.36-86.36-86.36z" fill="#500000" p-id="1009"></path></svg>